<svg version="1.1" id="Layer_1" xmlns="http://www.w3.org/2000/svg" xmlns:xlink="http://www.w3.org/1999/xlink" x="0px" y="0px"
	 width="100%" viewBox="0 0 242 208" enable-background="new 0 0 242 208" xml:space="preserve">
<path fill="#FEFEFF" opacity="1.000000" stroke="none" 
	d="
M59.000000,1.000000 
	C120.239716,1.000000 181.479431,1.000000 243.000000,1.000000 
	C243.000000,35.020378 243.000000,69.041534 242.558228,103.531342 
	C237.986618,104.090538 233.541489,104.884438 233.387527,98.407272 
	C233.367844,97.578789 230.938782,96.416580 229.478745,96.110260 
	C227.565002,95.708725 225.501526,95.927032 223.508759,96.017632 
	C220.392334,96.159309 218.066879,95.871986 217.732941,91.734375 
	C217.624039,90.384712 215.077896,88.705894 213.336746,88.153236 
	C211.370316,87.529060 209.041519,88.157143 206.894592,87.966827 
	C203.028503,87.624107 201.313904,89.668518 201.050674,93.134178 
	C200.299271,103.026955 199.676819,112.929520 198.996506,122.827744 
	C198.917267,123.980659 199.053497,125.248444 198.602982,126.242271 
	C198.276871,126.961639 197.187454,127.611816 196.357513,127.731438 
	C195.776184,127.815224 194.494446,126.959908 194.488297,126.510826 
	C194.422989,121.736778 191.825943,119.727829 187.353027,119.470352 
	C187.004745,119.450302 186.422760,118.801552 186.404877,118.423454 
	C186.055771,111.044846 181.527206,111.418526 176.274017,112.762474 
	C175.470642,112.968002 174.415497,112.189407 173.532715,111.642136 
	C173.588608,111.418282 173.848618,111.037064 174.171936,110.895767 
	C178.011566,107.521881 178.714981,102.716980 176.034088,99.586807 
	C176.347092,95.950302 176.695358,92.729088 177.080414,89.167648 
	C172.573578,89.167648 168.781799,89.167648 164.592194,89.107117 
	C163.125763,89.089790 162.057190,89.132996 160.575729,89.108833 
	C158.772232,89.081726 157.381622,89.121986 155.593857,89.098557 
	C154.128510,89.079811 153.060333,89.124756 151.618774,89.104645 
	C150.490982,89.074295 149.736526,89.109001 148.549026,89.077538 
	C146.079407,89.064377 144.042862,89.117386 141.583282,89.096321 
	C138.642197,89.078941 136.124130,89.135651 133.214264,89.154587 
	C132.186356,89.481071 131.550247,89.845329 130.682281,90.184250 
	C130.450424,90.158920 130.001938,90.030579 129.720642,89.731644 
	C125.183548,88.952393 120.902916,88.617851 116.687599,87.899849 
	C115.477417,87.693726 113.685509,86.503059 113.532738,85.544983 
	C113.316734,84.190338 114.028244,81.672714 114.953049,81.338272 
	C117.933899,80.260262 121.182663,76.358696 124.382607,81.165405 
	C124.655769,81.575722 125.921776,81.910011 126.060806,81.738846 
	C129.254471,77.807236 133.774307,79.621628 137.536469,79.495850 
	C146.037079,79.211632 154.628876,79.365616 163.068069,80.340828 
	C168.673874,80.988632 168.957230,81.477425 168.999954,75.640488 
	C169.006042,74.808777 169.005157,73.977020 169.224182,72.897415 
	C170.035797,71.794327 170.630737,70.939117 171.535126,69.965378 
	C172.886047,68.455368 173.927521,67.063896 175.301331,65.620651 
	C180.656509,61.372063 180.204834,55.517784 180.902374,49.891914 
	C164.826294,49.891914 149.262314,49.891914 133.237274,49.821915 
	C131.989655,50.157898 131.203125,50.563873 130.483047,50.764366 
	C130.062225,50.716507 129.574936,50.874130 128.738892,50.987446 
	C127.928024,51.002991 127.465919,51.062843 126.549278,51.056126 
	C121.745323,51.387562 117.395889,51.785568 112.690491,52.173252 
	C110.563713,52.798565 108.792900,53.434200 106.661606,54.047104 
	C104.200142,55.029015 102.099167,56.033649 99.644241,57.023682 
	C98.255241,57.523335 97.220192,58.037586 96.038048,58.240707 
	C92.328484,59.567093 87.792175,60.354141 85.439484,63.048157 
	C82.184608,66.775261 79.190033,65.278221 76.164505,64.332565 
	C73.003937,63.344723 68.886177,62.196991 67.406479,59.767361 
	C64.832787,55.541416 61.600941,54.187550 57.246059,54.013504 
	C55.319473,53.936508 53.387249,54.000526 51.064728,54.000526 
	C51.064728,49.012833 51.034363,44.793446 51.098640,40.575497 
	C51.107899,39.967888 51.404900,39.164719 51.852169,38.794159 
	C57.295105,34.284752 60.471210,26.721729 69.237427,26.645090 
	C72.437019,26.617117 75.665497,25.178850 78.805656,24.153809 
	C83.715492,22.551094 84.163605,20.294237 80.319160,16.841429 
	C74.406998,11.531552 69.131805,5.016870 59.934875,5.679613 
	C59.822437,5.687715 59.693668,5.469216 59.243416,5.050258 
	C59.175377,3.918140 59.087688,2.459070 59.000000,1.000000 
M83.201988,61.609196 
	C83.206207,61.214821 83.210426,60.820442 83.214645,60.426067 
	C83.050987,60.424572 82.745094,60.412090 82.744240,60.423180 
	C82.713921,60.815659 82.712196,61.210350 83.201988,61.609196 
z"/>
<path fill="#E8F3FF" opacity="1.000000" stroke="none" 
	d="
M120.000000,209.000000 
	C80.421165,209.000000 40.842327,209.000000 1.000000,209.000000 
	C1.000000,182.979706 1.000000,156.958511 1.424898,130.468658 
	C5.231801,129.792984 8.150409,129.825760 8.316136,134.625229 
	C8.356434,135.792221 10.871583,137.348373 12.517488,137.858368 
	C14.342532,138.423843 16.478720,138.070175 18.473572,137.982925 
	C21.579720,137.847061 24.029579,138.081635 24.218313,142.265106 
	C24.275742,143.538071 26.315550,145.610397 27.625454,145.760223 
	C30.724112,146.114655 31.832983,147.260895 32.259712,150.352448 
	C32.446148,151.703125 34.792542,153.614853 36.221382,153.671402 
	C37.431698,153.719299 39.286469,151.679123 39.873928,150.178513 
	C40.945934,147.440170 41.094215,144.351959 42.026379,141.541916 
	C42.462551,140.227051 43.827251,139.220200 44.771118,138.073746 
	C45.847176,139.067841 46.945679,140.038910 47.994167,141.061264 
	C49.663559,142.689041 51.260593,144.392914 52.965748,145.981369 
	C53.861328,146.815643 55.549088,147.303421 55.802185,148.239014 
	C57.116718,153.098251 60.461494,154.293884 64.930748,154.015305 
	C68.477158,153.794266 71.988724,153.400543 72.616844,158.627396 
	C72.767410,159.880234 75.189621,160.902451 76.630203,161.943359 
	C77.635292,162.669601 79.494431,163.071716 79.693207,163.918747 
	C81.140175,170.084473 85.697296,170.274261 90.594948,169.996796 
	C93.473160,169.833740 95.695030,170.086548 96.318932,173.845291 
	C96.572548,175.373276 98.883850,176.579346 100.298737,177.888855 
	C101.478775,178.981003 102.716972,180.010330 103.929413,181.067474 
	C102.672813,182.087967 101.252670,182.964615 100.198441,184.163132 
	C98.667824,185.903214 96.585213,187.771820 96.328773,189.787964 
	C96.175354,190.994202 98.995384,192.660995 100.597054,193.976929 
	C101.543259,194.754333 103.642723,195.238205 103.651611,195.875992 
	C103.749725,202.915726 108.687340,202.023865 113.191315,202.008774 
	C119.962990,201.986084 119.963074,202.011108 120.000000,209.000000 
M59.764572,168.065826 
	C55.437649,164.874268 51.110725,161.682709 46.393318,158.203140 
	C46.015156,162.941803 44.881058,166.952194 49.467308,170.489532 
	C53.454613,173.564926 55.754765,179.333389 60.018826,181.409821 
	C64.801117,183.738602 70.938042,183.441742 76.517601,183.866882 
	C77.904640,183.972565 79.415115,182.458328 80.868851,181.688690 
	C79.701057,180.138687 78.683571,178.436646 77.318062,177.086624 
	C76.219582,176.000595 73.655235,175.460403 73.541710,174.471359 
	C72.934822,169.183777 68.751465,169.806274 65.408318,169.031342 
	C63.810566,168.660995 62.158031,168.526993 59.764572,168.065826 
z"/>
<path fill="#ECF6FF" opacity="1.000000" stroke="none" 
	d="
M120.468658,209.000000 
	C119.963074,202.011108 119.962990,201.986084 113.191315,202.008774 
	C108.687340,202.023865 103.749725,202.915726 103.651611,195.875992 
	C103.642723,195.238205 101.543259,194.754333 100.597054,193.976929 
	C98.995384,192.660995 96.175354,190.994202 96.328773,189.787964 
	C96.585213,187.771820 98.667824,185.903214 100.198441,184.163132 
	C101.252670,182.964615 102.672813,182.087967 103.929413,181.067474 
	C102.716972,180.010330 101.478775,178.981003 100.298737,177.888855 
	C98.883850,176.579346 96.572548,175.373276 96.318932,173.845291 
	C95.695030,170.086548 93.473160,169.833740 90.594948,169.996796 
	C85.697296,170.274261 81.140175,170.084473 79.693207,163.918747 
	C79.494431,163.071716 77.635292,162.669601 76.630203,161.943359 
	C75.189621,160.902451 72.767410,159.880234 72.616844,158.627396 
	C71.988724,153.400543 68.477158,153.794266 64.930748,154.015305 
	C60.461494,154.293884 57.116718,153.098251 55.802185,148.239014 
	C55.549088,147.303421 53.861328,146.815643 52.965748,145.981369 
	C51.260593,144.392914 49.663559,142.689041 47.994167,141.061264 
	C46.945679,140.038910 45.847176,139.067841 44.771118,138.073746 
	C43.827251,139.220200 42.462551,140.227051 42.026379,141.541916 
	C41.094215,144.351959 40.945934,147.440170 39.873928,150.178513 
	C39.286469,151.679123 37.431698,153.719299 36.221382,153.671402 
	C34.792542,153.614853 32.446148,151.703125 32.259712,150.352448 
	C31.832983,147.260895 30.724112,146.114655 27.625454,145.760223 
	C26.315550,145.610397 24.275742,143.538071 24.218313,142.265106 
	C24.029579,138.081635 21.579720,137.847061 18.473572,137.982925 
	C16.478720,138.070175 14.342532,138.423843 12.517488,137.858368 
	C10.871583,137.348373 8.356434,135.792221 8.316136,134.625229 
	C8.150409,129.825760 5.231801,129.792984 1.424898,130.000000 
	C1.000000,118.645775 1.000000,107.291542 1.464243,95.468658 
	C5.094114,95.000244 8.287831,94.748550 11.414617,95.097168 
	C13.230441,95.299614 15.350555,96.047844 16.609028,97.286674 
	C19.161592,99.799423 20.355434,103.813591 25.003326,103.799561 
	C25.638355,103.797630 26.839645,105.552353 26.821194,106.474586 
	C26.732588,110.902939 29.451777,111.268410 32.772324,110.998863 
	C36.414326,110.703232 38.514004,112.769615 41.439144,114.743149 
	C46.207352,117.960121 50.219193,120.914474 52.165756,126.369179 
	C52.275208,126.675880 53.081093,126.681458 53.487274,126.944054 
	C55.131287,128.006912 56.745712,129.115540 58.655018,130.398010 
	C59.240395,130.196976 60.360340,129.812347 62.404510,129.110321 
	C61.587112,131.460098 61.084148,132.905975 60.459877,134.700577 
	C62.066395,135.065826 63.645649,135.424881 65.200562,135.829376 
	C65.176216,135.874832 65.073151,135.878464 65.154617,136.125778 
	C65.502434,136.585861 65.768799,136.798615 66.093834,137.360367 
	C71.834389,146.654373 79.132965,153.927551 88.849625,158.314346 
	C97.735954,162.326279 107.272614,162.396896 116.676849,162.119873 
	C115.686310,162.774811 114.834915,163.136078 113.575645,163.670410 
	C115.830231,163.964539 117.642517,164.200958 120.169098,164.530579 
	C118.452171,165.731964 117.455643,166.429260 116.081444,167.390823 
	C117.984016,167.895538 119.979721,167.854645 120.362679,168.620331 
	C122.624680,173.143021 130.517792,172.234482 130.301422,179.024200 
	C130.292831,179.294159 130.998184,179.625931 131.408432,179.864349 
	C139.047287,184.304092 147.330490,186.485565 156.110596,187.060989 
	C157.290344,187.138321 159.345642,187.853424 159.431305,188.485260 
	C160.400909,195.636673 165.789368,193.918503 170.171936,193.954086 
	C173.404129,193.980347 176.176285,193.950729 176.203384,198.434723 
	C176.210098,199.545303 177.870773,201.590378 178.781326,201.596130 
	C184.260056,201.630753 184.332932,205.091141 184.000000,209.000000 
	C162.979111,209.000000 141.958206,209.000000 120.468658,209.000000 
M113.483208,167.588058 
	C113.483208,167.588058 113.416870,167.477020 113.483208,167.588058 
M81.588768,159.516830 
	C81.588768,159.516830 81.476967,159.583588 81.588768,159.516830 
z"/>
<path fill="#F7FAFF" opacity="1.000000" stroke="none" 
	d="
M58.531342,1.000000 
	C59.087688,2.459070 59.175377,3.918140 59.243416,5.050258 
	C59.693668,5.469216 59.822437,5.687715 59.934875,5.679613 
	C69.131805,5.016870 74.406998,11.531552 80.319160,16.841429 
	C84.163605,20.294237 83.715492,22.551094 78.805656,24.153809 
	C75.665497,25.178850 72.437019,26.617117 69.237427,26.645090 
	C60.471210,26.721729 57.295105,34.284752 51.852169,38.794159 
	C51.404900,39.164719 51.107899,39.967888 51.098640,40.575497 
	C51.034363,44.793446 51.064728,49.012833 51.064728,54.000526 
	C53.387249,54.000526 55.319473,53.936508 57.246059,54.013504 
	C61.600941,54.187550 64.832787,55.541416 67.406479,59.767361 
	C68.886177,62.196991 73.003937,63.344723 76.164505,64.332565 
	C79.190033,65.278221 82.184608,66.775261 85.439484,63.048157 
	C87.792175,60.354141 92.328484,59.567093 95.869522,58.442844 
	C95.185028,59.522030 94.521965,60.087955 93.536484,60.787315 
	C90.068176,63.527447 86.922302,66.134140 83.836136,68.745377 
	C83.895859,68.749916 83.768929,68.722046 83.554092,68.780731 
	C83.339249,68.839417 83.050385,69.178459 82.767120,69.339798 
	C79.588348,72.982101 76.692833,76.463058 73.516388,80.114288 
	C71.806618,82.827507 70.377777,85.370438 68.677109,88.137215 
	C67.409134,90.856041 66.412987,93.351021 65.246979,96.081848 
	C64.708557,97.211327 64.339989,98.104950 63.722511,98.828430 
	C62.994755,98.238838 62.568592,97.546471 62.028889,97.442291 
	C56.819622,96.436646 50.145287,98.602554 48.133209,90.807411 
	C47.995071,90.272232 47.251137,89.598068 46.705070,89.510292 
	C42.361942,88.812202 42.595539,85.036697 42.159439,82.199951 
	C41.408890,77.317787 41.740875,72.259720 40.877914,67.407188 
	C40.132511,63.215729 42.004803,57.301449 34.946930,56.139896 
	C34.150864,56.008884 33.142586,54.066673 33.114933,52.942642 
	C33.028435,49.425980 31.008694,48.918407 28.159454,48.968033 
	C25.348591,49.016991 21.037626,49.902126 20.001503,48.494423 
	C16.955370,44.355858 11.189732,41.592884 9.871230,38.009102 
	C7.802613,32.386452 4.821413,33.058823 1.000000,33.000000 
	C1.000000,22.385452 1.000000,11.770905 1.000000,1.000000 
	C20.020643,1.000000 39.041664,1.000000 58.531342,1.000000 
z"/>
<path fill="#F7FAFF" opacity="1.000000" stroke="none" 
	d="
M243.000000,130.000000 
	C243.000000,150.687561 243.000000,171.375122 242.569427,192.531342 
	C237.543045,193.263062 233.370026,193.080536 232.609177,186.964493 
	C232.508865,186.158096 230.070923,185.294418 228.622925,185.078293 
	C225.856522,184.665405 221.803314,185.811722 220.454971,184.332367 
	C216.921951,180.456055 211.412277,177.415085 209.779205,173.204086 
	C207.670746,167.767303 203.807297,168.951324 200.748520,168.424438 
	C197.799286,167.916412 194.164185,168.817184 192.985352,173.026825 
	C192.645477,174.240509 190.891251,175.837357 189.703857,175.909164 
	C181.438843,176.409119 173.152496,176.558228 164.872269,176.795013 
	C164.569839,176.803680 164.056763,176.626663 163.983475,176.416840 
	C162.173569,171.235229 157.557083,168.960281 153.871262,165.560303 
	C151.793060,163.643265 150.858505,160.766891 147.319031,160.587967 
	C144.302551,160.435455 141.275665,160.172531 138.300430,159.676346 
	C137.122391,159.479858 136.071411,158.521332 134.995575,157.589127 
	C135.315704,156.727188 135.602829,156.185898 136.202240,155.612579 
	C137.200241,155.124039 137.886002,154.667511 138.741577,154.077133 
	C139.057312,153.688034 139.138840,153.413666 139.144806,153.107925 
	C139.133591,153.095688 139.156509,153.134888 139.436035,153.152069 
	C142.475372,151.059616 145.235184,148.949982 148.345337,146.921997 
	C150.796204,145.337112 152.896698,143.670578 155.271881,141.905594 
	C156.040253,141.219498 156.533951,140.631836 157.322021,139.890900 
	C159.415588,137.500381 161.214798,135.263107 163.281281,132.877655 
	C164.063812,131.868256 164.579086,131.007019 165.347900,130.013031 
	C166.021149,129.493896 166.440857,129.107483 167.004608,129.055908 
	C168.665924,133.017746 168.242004,138.458832 174.698700,137.469955 
	C175.219574,144.204971 184.300262,144.104828 185.261871,150.655258 
	C185.396042,151.569275 187.286896,152.689484 188.496735,152.881546 
	C190.768692,153.242249 193.152802,152.825500 195.462128,153.037857 
	C199.292984,153.390121 200.653915,151.731827 201.083862,147.976212 
	C202.538940,135.265869 204.403442,122.602905 205.959183,109.903183 
	C206.311630,107.026001 207.733078,106.101967 209.812469,107.720512 
	C213.154510,110.321877 216.004669,113.544998 219.217148,116.327011 
	C221.058762,117.921875 223.183899,120.314735 225.218460,120.352493 
	C231.578766,120.470535 235.293396,124.687561 239.634094,128.113968 
	C240.631088,128.900970 241.871567,129.379517 243.000000,130.000000 
z"/>
<path fill="#F1F8FF" opacity="1.000000" stroke="none" 
	d="
M134.962585,157.909790 
	C136.071411,158.521332 137.122391,159.479858 138.300430,159.676346 
	C141.275665,160.172531 144.302551,160.435455 147.319031,160.587967 
	C150.858505,160.766891 151.793060,163.643265 153.871262,165.560303 
	C157.557083,168.960281 162.173569,171.235229 163.983475,176.416840 
	C164.056763,176.626663 164.569839,176.803680 164.872269,176.795013 
	C173.152496,176.558228 181.438843,176.409119 189.703857,175.909164 
	C190.891251,175.837357 192.645477,174.240509 192.985352,173.026825 
	C194.164185,168.817184 197.799286,167.916412 200.748520,168.424438 
	C203.807297,168.951324 207.670746,167.767303 209.779205,173.204086 
	C211.412277,177.415085 216.921951,180.456055 220.454971,184.332367 
	C221.803314,185.811722 225.856522,184.665405 228.622925,185.078293 
	C230.070923,185.294418 232.508865,186.158096 232.609177,186.964493 
	C233.370026,193.080536 237.543045,193.263062 242.569427,193.000000 
	C243.000000,198.302032 243.000000,203.604050 243.000000,209.000000 
	C223.645859,209.000000 204.291595,209.000000 184.468658,209.000000 
	C184.332932,205.091141 184.260056,201.630753 178.781326,201.596130 
	C177.870773,201.590378 176.210098,199.545303 176.203384,198.434723 
	C176.176285,193.950729 173.404129,193.980347 170.171936,193.954086 
	C165.789368,193.918503 160.400909,195.636673 159.431305,188.485260 
	C159.345642,187.853424 157.290344,187.138321 156.110596,187.060989 
	C147.330490,186.485565 139.047287,184.304092 131.408432,179.864349 
	C130.998184,179.625931 130.292831,179.294159 130.301422,179.024200 
	C130.517792,172.234482 122.624680,173.143021 120.362679,168.620331 
	C119.979721,167.854645 117.984016,167.895538 116.081444,167.390823 
	C117.455643,166.429260 118.452171,165.731964 120.169098,164.530579 
	C117.642517,164.200958 115.830231,163.964539 113.575645,163.670410 
	C114.834915,163.136078 115.686310,162.774811 116.704971,162.134766 
	C116.872253,161.856003 116.861267,161.915405 117.086105,161.879059 
	C117.606171,161.727509 117.824806,161.528275 118.369835,161.130539 
	C121.520554,160.346985 124.268303,159.677917 127.400314,159.004089 
	C130.177246,158.636124 132.569916,158.272964 134.962585,157.909790 
z"/>
<path fill="#F0F8FF" opacity="1.000000" stroke="none" 
	d="
M1.000000,33.468658 
	C4.821413,33.058823 7.802613,32.386452 9.871230,38.009102 
	C11.189732,41.592884 16.955370,44.355858 20.001503,48.494423 
	C21.037626,49.902126 25.348591,49.016991 28.159454,48.968033 
	C31.008694,48.918407 33.028435,49.425980 33.114933,52.942642 
	C33.142586,54.066673 34.150864,56.008884 34.946930,56.139896 
	C42.004803,57.301449 40.132511,63.215729 40.877914,67.407188 
	C41.740875,72.259720 41.408890,77.317787 42.159439,82.199951 
	C42.595539,85.036697 42.361942,88.812202 46.705070,89.510292 
	C47.251137,89.598068 47.995071,90.272232 48.133209,90.807411 
	C50.145287,98.602554 56.819622,96.436646 62.028889,97.442291 
	C62.568592,97.546471 62.994755,98.238838 63.735168,99.211327 
	C63.681484,101.509514 63.366238,103.254662 62.934570,105.393105 
	C62.587524,109.187607 62.356895,112.588814 62.072094,116.405640 
	C62.344753,119.214218 62.671589,121.607162 62.989571,124.406693 
	C63.728779,128.470169 64.476837,132.127045 65.224899,135.783920 
	C63.645649,135.424881 62.066395,135.065826 60.459877,134.700577 
	C61.084148,132.905975 61.587112,131.460098 62.404510,129.110321 
	C60.360340,129.812347 59.240395,130.196976 58.655018,130.398010 
	C56.745712,129.115540 55.131287,128.006912 53.487274,126.944054 
	C53.081093,126.681458 52.275208,126.675880 52.165756,126.369179 
	C50.219193,120.914474 46.207352,117.960121 41.439144,114.743149 
	C38.514004,112.769615 36.414326,110.703232 32.772324,110.998863 
	C29.451777,111.268410 26.732588,110.902939 26.821194,106.474586 
	C26.839645,105.552353 25.638355,103.797630 25.003326,103.799561 
	C20.355434,103.813591 19.161592,99.799423 16.609028,97.286674 
	C15.350555,96.047844 13.230441,95.299614 11.414617,95.097168 
	C8.287831,94.748550 5.094114,95.000244 1.464243,95.000000 
	C1.000000,74.645775 1.000000,54.291546 1.000000,33.468658 
z"/>
<path fill="#FCFDFF" opacity="1.000000" stroke="none" 
	d="
M243.000000,129.531342 
	C241.871567,129.379517 240.631088,128.900970 239.634094,128.113968 
	C235.293396,124.687561 231.578766,120.470535 225.218460,120.352493 
	C223.183899,120.314735 221.058762,117.921875 219.217148,116.327011 
	C216.004669,113.544998 213.154510,110.321877 209.812469,107.720512 
	C207.733078,106.101967 206.311630,107.026001 205.959183,109.903183 
	C204.403442,122.602905 202.538940,135.265869 201.083862,147.976212 
	C200.653915,151.731827 199.292984,153.390121 195.462128,153.037857 
	C193.152802,152.825500 190.768692,153.242249 188.496735,152.881546 
	C187.286896,152.689484 185.396042,151.569275 185.261871,150.655258 
	C184.300262,144.104828 175.219574,144.204971 174.698700,137.469955 
	C168.242004,138.458832 168.665924,133.017746 167.028702,128.733459 
	C167.019455,127.439415 167.130127,126.802620 167.273560,126.173798 
	C167.306305,126.181778 167.373672,126.179077 167.638031,125.965767 
	C169.760513,121.123634 171.618668,116.494804 173.476807,111.865982 
	C174.415497,112.189407 175.470642,112.968002 176.274017,112.762474 
	C181.527206,111.418526 186.055771,111.044846 186.404877,118.423454 
	C186.422760,118.801552 187.004745,119.450302 187.353027,119.470352 
	C191.825943,119.727829 194.422989,121.736778 194.488297,126.510826 
	C194.494446,126.959908 195.776184,127.815224 196.357513,127.731438 
	C197.187454,127.611816 198.276871,126.961639 198.602982,126.242271 
	C199.053497,125.248444 198.917267,123.980659 198.996506,122.827744 
	C199.676819,112.929520 200.299271,103.026955 201.050674,93.134178 
	C201.313904,89.668518 203.028503,87.624107 206.894592,87.966827 
	C209.041519,88.157143 211.370316,87.529060 213.336746,88.153236 
	C215.077896,88.705894 217.624039,90.384712 217.732941,91.734375 
	C218.066879,95.871986 220.392334,96.159309 223.508759,96.017632 
	C225.501526,95.927032 227.565002,95.708725 229.478745,96.110260 
	C230.938782,96.416580 233.367844,97.578789 233.387527,98.407272 
	C233.541489,104.884438 237.986618,104.090538 242.558228,104.000000 
	C243.000000,112.354233 243.000000,120.708466 243.000000,129.531342 
z"/>
<path fill="#F8FBFD" opacity="1.000000" stroke="none" 
	d="
M169.007492,73.145279 
	C169.005157,73.977020 169.006042,74.808777 168.999954,75.640488 
	C168.957230,81.477425 168.673874,80.988632 163.068069,80.340828 
	C154.628876,79.365616 146.037079,79.211632 137.536469,79.495850 
	C133.774307,79.621628 129.254471,77.807236 126.060806,81.738846 
	C125.921776,81.910011 124.655769,81.575722 124.382607,81.165405 
	C121.182663,76.358696 117.933899,80.260262 114.953049,81.338272 
	C114.028244,81.672714 113.316734,84.190338 113.532738,85.544983 
	C113.685509,86.503059 115.477417,87.693726 116.687599,87.899849 
	C120.902916,88.617851 125.183548,88.952393 129.467941,89.916100 
	C128.266113,91.147583 127.035698,91.895683 125.814682,92.672760 
	C125.824089,92.701744 125.881721,92.721527 125.579071,92.767075 
	C124.811066,93.179054 124.345726,93.545502 123.925583,93.928154 
	C123.970787,93.944366 123.930260,93.857292 123.685654,93.896118 
	C123.441040,93.934944 123.043549,94.230446 122.744766,94.324638 
	C121.345322,95.621536 120.244667,96.824242 119.055389,98.214676 
	C118.966774,98.402390 118.922188,98.815155 118.707001,98.901428 
	C118.177116,99.086411 117.950890,99.285591 117.565315,99.739861 
	C116.889145,100.283737 116.460785,100.673004 115.914421,100.781685 
	C115.387520,99.870270 114.978622,99.239449 114.569725,98.608627 
	C114.247704,98.677345 113.925690,98.746063 113.603668,98.814781 
	C113.736992,100.876831 113.870316,102.938881 114.001816,105.000465 
	C114.000000,105.000000 114.002190,105.003883 113.761177,105.014160 
	C113.242188,105.137306 112.964211,105.250168 112.686234,105.363029 
	C113.040207,105.576591 113.394188,105.790154 113.759163,106.357361 
	C113.271584,108.485878 112.773003,110.260742 112.131584,112.323822 
	C112.368118,113.931610 112.747482,115.251198 113.559814,116.642548 
	C116.346603,116.627060 118.700432,116.539810 121.470573,116.563606 
	C123.607185,116.608574 125.327484,116.542503 127.475304,116.578209 
	C129.953140,116.599442 132.003433,116.518906 134.404572,116.545784 
	C135.487961,116.647652 136.220520,116.642097 137.288666,116.770111 
	C138.752197,117.265747 139.880127,117.627815 141.043152,118.367165 
	C139.306396,121.450531 137.534531,124.156601 135.554657,126.899841 
	C135.104065,127.097397 134.837372,127.178505 134.167084,127.120102 
	C132.364456,127.129478 130.941330,127.199089 129.518219,127.268692 
	C130.000076,128.145477 130.481949,129.022263 130.792282,130.127060 
	C130.113419,130.587341 129.606079,130.819611 128.776688,131.057404 
	C127.660339,131.285721 126.330803,131.910583 126.151299,131.671616 
	C122.987793,127.459976 118.878815,129.047760 115.493355,130.519241 
	C112.442467,131.845306 109.547119,132.082657 108.135773,129.573318 
	C106.742271,127.095718 105.574974,122.250954 106.852730,120.956909 
	C109.923149,117.847343 107.493027,115.984489 107.203026,112.597221 
	C104.431740,119.388580 99.162697,120.804634 91.672844,117.291100 
	C92.881569,116.623245 94.096069,116.333099 94.664345,115.564903 
	C96.202972,113.484917 99.051796,109.773163 98.572083,109.241096 
	C96.208557,106.619652 97.800888,100.658142 92.000870,101.000916 
	C92.000000,101.000000 91.998436,100.998917 91.998108,100.604263 
	C91.972488,99.421455 91.947197,98.633301 91.884186,97.626656 
	C91.846474,97.408173 91.817078,96.965714 92.066490,96.748528 
	C92.988930,95.405701 93.661964,94.280060 94.607086,92.974052 
	C97.603996,89.901047 100.328819,87.008400 103.278191,84.061378 
	C103.825325,83.896683 104.021790,83.674721 104.364853,83.224594 
	C104.844261,82.787964 105.050964,82.467857 105.178329,82.178375 
	C105.098976,82.209007 105.201706,82.344597 105.520279,82.315315 
	C106.550781,81.828285 107.262718,81.370529 108.196442,80.908623 
	C108.737061,80.841827 108.955429,80.659126 109.455154,80.280647 
	C113.265282,79.165199 116.693596,78.125458 120.564087,77.119781 
	C123.674248,77.039658 126.342216,76.925476 129.409409,76.876099 
	C130.883057,76.895653 131.957474,76.850388 133.420303,76.882683 
	C134.859818,76.911629 135.910950,76.863014 137.327332,76.883301 
	C139.151932,76.901756 140.611252,76.851311 142.465820,76.862823 
	C146.256622,76.886299 149.652206,76.847832 153.472931,76.882736 
	C158.934555,75.685837 163.971024,74.415558 169.007492,73.145279 
M131.485687,121.978287 
	C131.760071,121.859039 132.034439,121.739792 132.308823,121.620552 
	C132.221100,121.497375 132.062637,121.262680 132.055801,121.267021 
	C131.693497,121.496849 131.343994,121.746849 130.716293,122.106850 
	C130.812683,122.073540 130.909058,122.040222 131.485687,121.978287 
M102.202026,91.607971 
	C102.206223,91.214081 102.210426,90.820190 102.214622,90.426300 
	C102.051155,90.424774 101.745613,90.412292 101.744759,90.423325 
	C101.714523,90.815269 101.712822,91.209419 102.202026,91.607971 
z"/>
<path fill="#0B66FD" opacity="1.000000" stroke="none" 
	d="
M169.224182,72.897408 
	C163.971024,74.415558 158.934555,75.685837 153.629639,76.680298 
	C155.540192,74.810150 155.355042,73.542641 153.320648,71.696877 
	C149.185379,67.945030 145.334366,63.877125 141.414780,59.891678 
	C139.876114,58.327137 138.467728,56.634468 137.000000,55.000076 
	C137.000000,55.000000 137.000000,54.999847 136.731903,54.715141 
	C134.402847,54.310410 132.243958,53.745792 130.303574,54.173210 
	C127.295090,54.835899 126.976913,53.349602 127.003807,51.122696 
	C127.465919,51.062843 127.928024,51.002991 128.909088,51.004280 
	C129.757538,51.033566 130.087067,51.001713 130.416580,50.969856 
	C131.203125,50.563873 131.989655,50.157898 133.651535,49.880112 
	C138.019073,51.002838 141.511292,51.997379 145.085953,53.377476 
	C147.791901,54.172459 150.415390,54.581886 153.276306,54.987183 
	C153.513748,54.983051 153.988678,54.985474 153.993027,55.377632 
	C154.735779,57.735729 154.898743,60.547832 156.317810,61.512882 
	C161.044189,64.727089 166.221329,67.278473 171.225693,70.083916 
	C170.630737,70.939117 170.035797,71.794327 169.224182,72.897408 
z"/>
<path fill="#0F6DFD" opacity="1.000000" stroke="none" 
	d="
M137.000000,55.000153 
	C138.467728,56.634468 139.876114,58.327137 141.414780,59.891678 
	C145.334366,63.877125 149.185379,67.945030 153.320648,71.696877 
	C155.355042,73.542641 155.540192,74.810150 153.204483,76.606918 
	C149.652206,76.847832 146.256622,76.886299 142.458359,76.438568 
	C141.837753,75.005249 141.935669,73.736183 141.351135,73.162827 
	C137.295212,69.184425 133.092621,65.355766 128.947876,61.467560 
	C127.547890,60.154224 125.012054,58.809971 125.009293,57.475666 
	C125.000023,53.006981 121.779495,53.573391 119.241302,53.034843 
	C117.207703,52.603363 115.113670,52.456657 113.046463,52.183571 
	C117.395889,51.785568 121.745323,51.387562 126.549278,51.056122 
	C126.976913,53.349602 127.295090,54.835899 130.303574,54.173210 
	C132.243958,53.745792 134.402847,54.310410 136.447662,54.750320 
	C136.109055,55.375145 135.786621,55.680073 135.464188,55.985008 
	C135.673828,56.166649 135.883469,56.348289 136.093109,56.529930 
	C136.395416,56.020008 136.697708,55.510082 137.000000,55.000153 
z"/>
<path fill="#2896FD" opacity="1.000000" stroke="none" 
	d="
M154.997208,142.004028 
	C152.896698,143.670578 150.796204,145.337112 148.272400,146.573090 
	C144.784012,143.852432 144.510635,140.816238 145.326584,137.362122 
	C145.737152,135.624084 146.436951,133.528809 145.850220,132.055283 
	C143.465637,126.066635 143.543533,120.099625 145.143051,113.679337 
	C145.858688,111.571640 146.430054,109.786278 147.015198,107.605942 
	C147.349426,105.138046 147.669891,103.065117 148.009521,100.572121 
	C148.346497,96.482597 148.664291,92.813156 148.982086,89.143707 
	C149.736526,89.109001 150.490982,89.074295 151.621124,89.557571 
	C151.997421,98.150887 152.029373,106.226425 151.972519,114.301346 
	C151.960983,115.942436 151.481964,117.578262 151.445816,119.221504 
	C151.274277,127.020584 148.714645,135.208359 154.997208,142.004028 
z"/>
<path fill="#1373FE" opacity="1.000000" stroke="none" 
	d="
M112.690491,52.173252 
	C115.113670,52.456657 117.207703,52.603363 119.241302,53.034843 
	C121.779495,53.573391 125.000023,53.006981 125.009293,57.475666 
	C125.012054,58.809971 127.547890,60.154224 128.947876,61.467560 
	C133.092621,65.355766 137.295212,69.184425 141.351135,73.162827 
	C141.935669,73.736183 141.837753,75.005249 142.063126,76.376617 
	C140.611252,76.851311 139.151932,76.901756 137.105042,76.658844 
	C135.355621,76.512032 134.193771,76.658585 133.031906,76.805130 
	C131.957474,76.850388 130.883057,76.895653 129.406921,76.486038 
	C128.030914,74.173363 127.446518,71.905327 126.006935,70.537071 
	C122.166946,66.887344 117.853165,63.738049 113.979828,60.119934 
	C113.120567,59.317299 113.299629,57.403091 113.240601,55.987953 
	C113.755646,55.858170 114.030701,55.741131 114.305756,55.624084 
	C114.218987,55.500492 114.132225,55.376900 114.045456,55.253311 
	C113.696831,55.501991 113.348206,55.750671 112.625145,56.000381 
	C110.507843,55.357555 108.764969,54.713696 107.022095,54.069832 
	C108.792900,53.434200 110.563713,52.798565 112.690491,52.173252 
z"/>
<path fill="#48CAFB" opacity="1.000000" stroke="none" 
	d="
M173.532715,111.642136 
	C171.618668,116.494804 169.760513,121.123634 167.420151,125.678970 
	C166.327835,124.045258 165.290451,122.506500 165.210693,120.919617 
	C165.099014,118.697220 165.998215,116.431740 165.943893,114.197350 
	C165.740997,105.851318 165.325684,97.510452 164.990021,89.167648 
	C168.781799,89.167648 172.573578,89.167648 177.080414,89.167648 
	C176.695358,92.729088 176.347092,95.950302 175.894226,99.959846 
	C175.142609,104.177795 174.495605,107.607430 173.848602,111.037064 
	C173.848618,111.037064 173.588608,111.418282 173.532715,111.642136 
z"/>
<path fill="#187DFD" opacity="1.000000" stroke="none" 
	d="
M106.661606,54.047104 
	C108.764969,54.713696 110.507843,55.357555 112.625359,56.000710 
	C113.000000,56.000000 113.000610,56.000698 113.000610,56.000698 
	C113.299629,57.403091 113.120567,59.317299 113.979828,60.119934 
	C117.853165,63.738049 122.166946,66.887344 126.006935,70.537071 
	C127.446518,71.905327 128.030914,74.173363 129.007690,76.421227 
	C126.342216,76.925476 123.674248,77.039658 120.270233,76.912819 
	C115.152992,73.073799 110.758644,69.491638 106.395630,65.871712 
	C103.892204,63.794655 101.439621,61.656322 98.814018,59.417568 
	C99.005859,59.032124 99.502022,58.035206 99.998192,57.038284 
	C102.099167,56.033649 104.200142,55.029015 106.661606,54.047104 
z"/>
<path fill="#36ABFE" opacity="1.000000" stroke="none" 
	d="
M163.014008,133.025848 
	C161.214798,135.263107 159.415588,137.500381 157.167770,139.541489 
	C156.479233,135.339188 156.061203,131.334320 156.032272,127.326653 
	C155.940460,114.605743 155.993790,101.883797 155.991013,89.162247 
	C157.381622,89.121986 158.772232,89.081726 160.578781,89.565033 
	C161.662216,104.401283 159.401138,118.851685 163.014008,133.025848 
z"/>
<path fill="#2068FC" opacity="1.000000" stroke="none" 
	d="
M153.988678,54.985474 
	C153.988678,54.985474 153.513748,54.983051 153.184448,54.603058 
	C150.237946,53.812687 147.620712,53.402302 145.003494,52.991917 
	C141.511292,51.997379 138.019073,51.002838 134.112610,49.950108 
	C149.262314,49.891914 164.826294,49.891914 180.902374,49.891914 
	C180.204834,55.517784 180.656509,61.372063 175.310638,65.181740 
	C175.013138,53.901817 175.923157,55.113247 168.747375,54.686050 
	C164.627747,54.592751 160.801712,54.791679 156.602478,54.987480 
	C155.482391,54.984730 154.735535,54.985100 153.988678,54.985474 
M176.477798,54.601200 
	C176.477798,54.601200 176.399216,54.475239 176.477798,54.601200 
z"/>
<path fill="#065EFE" opacity="1.000000" stroke="none" 
	d="
M153.993027,55.377632 
	C154.735535,54.985100 155.482391,54.984730 157.066010,54.990421 
	C161.615524,54.990417 165.328247,54.984348 169.040985,54.978279 
	C175.923157,55.113247 175.013138,53.901817 174.978287,65.233521 
	C173.927521,67.063896 172.886047,68.455368 171.535126,69.965378 
	C166.221329,67.278473 161.044189,64.727089 156.317810,61.512882 
	C154.898743,60.547832 154.735779,57.735729 153.993027,55.377632 
z"/>
<path fill="#2DA1FE" opacity="1.000000" stroke="none" 
	d="
M155.593857,89.098557 
	C155.993790,101.883797 155.940460,114.605743 156.032272,127.326653 
	C156.061203,131.334320 156.479233,135.339188 156.873413,139.694763 
	C156.533951,140.631836 156.040253,141.219498 155.271881,141.905594 
	C148.714645,135.208359 151.274277,127.020584 151.445816,119.221504 
	C151.481964,117.578262 151.960983,115.942436 151.972519,114.301346 
	C152.029373,106.226425 151.997421,98.150887 151.994476,89.622635 
	C153.060333,89.124756 154.128510,89.079811 155.593857,89.098557 
z"/>
<path fill="#1F85FB" opacity="1.000000" stroke="none" 
	d="
M99.644241,57.023685 
	C99.502022,58.035206 99.005859,59.032124 98.814018,59.417568 
	C101.439621,61.656322 103.892204,63.794655 106.395630,65.871712 
	C110.758644,69.491638 115.152992,73.073799 119.828056,76.878754 
	C116.693596,78.125458 113.265282,79.165199 109.519249,79.959190 
	C109.369659,79.099182 109.537788,78.484924 109.833382,77.404976 
	C108.230270,77.996010 107.017029,78.443306 105.688263,78.933197 
	C105.396935,76.933830 105.741539,74.740768 104.806381,73.719208 
	C101.770256,70.402542 98.166878,67.611702 95.008728,64.395676 
	C94.197037,63.569111 94.219604,61.923321 93.858910,60.653881 
	C94.521965,60.087955 95.185028,59.522030 96.016617,58.753975 
	C97.220192,58.037586 98.255241,57.523335 99.644241,57.023685 
z"/>
<path fill="#1679FE" opacity="1.000000" stroke="none" 
	d="
M147.001419,108.000916 
	C146.430054,109.786278 145.858688,111.571640 144.883408,113.875107 
	C144.291687,115.006241 144.103882,115.619278 143.528290,116.186241 
	C142.096344,116.078995 141.052185,116.017822 139.946991,115.607910 
	C137.424484,110.839752 134.973007,106.414742 132.496277,102.003906 
	C131.607422,100.420914 129.531189,98.452644 129.930511,97.380173 
	C131.671844,92.703362 128.079391,93.386032 125.805275,92.643784 
	C127.035698,91.895683 128.266113,91.147583 129.749237,90.215027 
	C130.001938,90.030579 130.450424,90.158920 130.832520,90.428406 
	C131.777573,90.726288 132.340515,90.754692 132.965240,91.119446 
	C133.965210,92.369057 135.143829,93.137230 135.798294,94.221710 
	C138.126328,98.079391 140.086945,102.172615 142.604630,105.893883 
	C143.390808,107.055901 145.498611,107.323746 147.001419,108.000916 
z"/>
<path fill="#3DB7FE" opacity="1.000000" stroke="none" 
	d="
M163.281281,132.877670 
	C159.401138,118.851685 161.662216,104.401283 160.991669,89.632401 
	C162.057190,89.132996 163.125763,89.089790 164.592178,89.107117 
	C165.325684,97.510452 165.740997,105.851318 165.943893,114.197350 
	C165.998215,116.431740 165.099014,118.697220 165.210693,120.919617 
	C165.290451,122.506500 166.327835,124.045258 167.155792,125.892281 
	C167.373672,126.179077 167.306305,126.181778 166.957672,126.224915 
	C166.104141,127.560631 165.599243,128.853195 165.094360,130.145767 
	C164.579086,131.007019 164.063812,131.868256 163.281281,132.877670 
z"/>
<path fill="#0C68FD" opacity="1.000000" stroke="none" 
	d="
M147.015198,107.605942 
	C145.498611,107.323746 143.390808,107.055901 142.604630,105.893883 
	C140.086945,102.172615 138.126328,98.079391 135.798294,94.221710 
	C135.143829,93.137230 133.965210,92.369057 133.031342,90.834961 
	C133.225800,89.873528 133.415939,89.532944 133.606064,89.192360 
	C136.124130,89.135651 138.642197,89.078941 141.589142,89.473526 
	C144.008789,93.613937 145.999557,97.303070 147.990326,100.992203 
	C147.669891,103.065117 147.349426,105.138046 147.015198,107.605942 
z"/>
<path fill="#055DFA" opacity="1.000000" stroke="none" 
	d="
M148.009521,100.572128 
	C145.999557,97.303070 144.008789,93.613937 142.012146,89.547607 
	C144.042862,89.117386 146.079407,89.064377 148.549026,89.077538 
	C148.664291,92.813156 148.346497,96.482597 148.009521,100.572128 
z"/>
<path fill="#FCFDFF" opacity="1.000000" stroke="none" 
	d="
M174.171921,110.895767 
	C174.495605,107.607430 175.142609,104.177795 175.929474,100.375130 
	C178.714981,102.716980 178.011566,107.521881 174.171921,110.895767 
z"/>
<path fill="#2068FC" opacity="1.000000" stroke="none" 
	d="
M130.483047,50.764370 
	C130.087067,51.001713 129.757538,51.033566 129.257843,51.048584 
	C129.574936,50.874130 130.062225,50.716507 130.483047,50.764370 
z"/>
<path fill="#F7FAFF" opacity="1.000000" stroke="none" 
	d="
M82.954224,61.606964 
	C82.712196,61.210350 82.713921,60.815659 82.744240,60.423180 
	C82.745094,60.412090 83.050987,60.424572 83.214645,60.426067 
	C83.210426,60.820442 83.206207,61.214821 82.954224,61.606964 
z"/>
<path fill="#F8FBFD" opacity="1.000000" stroke="none" 
	d="
M133.214264,89.154587 
	C133.415939,89.532944 133.225800,89.873528 132.969574,90.498604 
	C132.340515,90.754692 131.777573,90.726288 131.064362,90.453735 
	C131.550247,89.845329 132.186356,89.481071 133.214264,89.154587 
z"/>
<path fill="#E4F1FF" opacity="1.000000" stroke="none" 
	d="
M60.147442,168.175873 
	C62.158031,168.526993 63.810566,168.660995 65.408318,169.031342 
	C68.751465,169.806274 72.934822,169.183777 73.541710,174.471359 
	C73.655235,175.460403 76.219582,176.000595 77.318062,177.086624 
	C78.683571,178.436646 79.701057,180.138687 80.868851,181.688690 
	C79.415115,182.458328 77.904640,183.972565 76.517601,183.866882 
	C70.938042,183.441742 64.801117,183.738602 60.018826,181.409821 
	C55.754765,179.333389 53.454613,173.564926 49.467308,170.489532 
	C44.881058,166.952194 46.015156,162.941803 46.393318,158.203140 
	C51.110725,161.682709 55.437649,164.874268 60.147442,168.175873 
z"/>
<path fill="#57D9FA" opacity="1.000000" stroke="none" 
	d="
M65.200562,135.829376 
	C64.476837,132.127045 63.728779,128.470169 63.267601,124.613037 
	C65.026520,131.581116 72.896683,132.521713 76.561905,137.635193 
	C77.269936,138.622986 79.593849,138.452560 81.156647,138.844238 
	C81.140938,138.872040 81.082695,138.889877 81.138107,139.119080 
	C81.339752,139.642502 81.564537,139.852692 82.036819,140.286514 
	C86.223907,148.832550 92.015816,155.171661 101.223625,158.383896 
	C103.908676,159.135590 106.343231,159.624786 109.112686,160.352509 
	C111.972000,160.765152 114.496407,160.939270 116.959816,161.309692 
	C116.898811,161.505997 116.861267,161.915405 116.861267,161.915405 
	C116.861267,161.915405 116.872253,161.856003 116.844124,161.841095 
	C107.272614,162.396896 97.735954,162.326279 88.849625,158.314346 
	C79.132965,153.927551 71.834389,146.654373 66.067978,137.081085 
	C65.680016,136.261368 65.376587,136.069916 65.073151,135.878464 
	C65.073151,135.878464 65.176216,135.874832 65.200562,135.829376 
z"/>
<path fill="#F0F8FF" opacity="1.000000" stroke="none" 
	d="
M65.154617,136.125778 
	C65.376587,136.069916 65.680016,136.261368 66.009308,136.732117 
	C65.768799,136.798615 65.502434,136.585861 65.154617,136.125778 
z"/>
<path fill="#F1F8FF" opacity="1.000000" stroke="none" 
	d="
M113.450043,167.532532 
	C113.416870,167.477020 113.483208,167.588058 113.450043,167.532532 
z"/>
<path fill="#E8F3FF" opacity="1.000000" stroke="none" 
	d="
M81.532867,159.550201 
	C81.476967,159.583588 81.588768,159.516830 81.532867,159.550201 
z"/>
<path fill="#2A99FC" opacity="1.000000" stroke="none" 
	d="
M103.053635,84.115753 
	C100.328819,87.008400 97.603996,89.901047 94.228943,92.904732 
	C92.050705,91.681572 90.503777,90.368332 88.998238,89.009239 
	C84.531387,84.976891 81.566269,78.437332 73.797318,79.944016 
	C76.692833,76.463058 79.588348,72.982101 82.895279,69.475082 
	C83.460770,69.206696 83.614845,68.964371 83.768921,68.722046 
	C83.768929,68.722046 83.895859,68.749916 84.140488,68.849075 
	C85.596558,70.151703 86.705139,71.485786 88.037788,72.535362 
	C93.003227,76.446075 98.042236,80.263382 103.053635,84.115753 
z"/>
<path fill="#32A4FC" opacity="1.000000" stroke="none" 
	d="
M73.516388,80.114288 
	C81.566269,78.437332 84.531387,84.976891 88.998238,89.009239 
	C90.503777,90.368332 92.050705,91.681572 93.956856,93.085091 
	C93.661964,94.280060 92.988930,95.405701 91.727905,96.795898 
	C89.094719,99.374512 87.049530,101.688568 84.721725,103.794846 
	C82.437775,97.442635 78.738380,92.788994 72.739815,90.089096 
	C71.417618,89.493988 70.209557,88.645294 68.948936,87.913376 
	C70.377777,85.370438 71.806618,82.827507 73.516388,80.114288 
z"/>
<path fill="#238DFC" opacity="1.000000" stroke="none" 
	d="
M103.278183,84.061371 
	C98.042236,80.263382 93.003227,76.446075 88.037788,72.535362 
	C86.705139,71.485786 85.596558,70.151703 84.080765,68.844536 
	C86.922302,66.134140 90.068176,63.527447 93.536484,60.787315 
	C94.219604,61.923321 94.197037,63.569111 95.008728,64.395676 
	C98.166878,67.611702 101.770256,70.402542 104.806381,73.719208 
	C105.741539,74.740768 105.396935,76.933830 105.688263,78.933197 
	C107.017029,78.443306 108.230270,77.996010 109.833382,77.404976 
	C109.537788,78.484924 109.369659,79.099182 109.137436,80.034904 
	C108.955429,80.659126 108.737061,80.841827 108.006226,80.680603 
	C106.796722,81.086021 105.999214,81.715309 105.201706,82.344597 
	C105.201706,82.344597 105.098976,82.209007 104.886528,82.264557 
	C104.480103,82.660439 104.286125,83.000778 104.092148,83.341118 
	C104.021790,83.674721 103.825325,83.896683 103.278183,84.061371 
M91.517593,64.411308 
	C91.517593,64.411308 91.584328,64.522751 91.517593,64.411308 
z"/>
<path fill="#3EB8FD" opacity="1.000000" stroke="none" 
	d="
M63.050987,104.999802 
	C63.366238,103.254662 63.681484,101.509514 63.984077,99.381477 
	C64.339989,98.104950 64.708557,97.211327 65.668900,96.141663 
	C73.455856,97.352074 77.170074,104.089714 83.242538,107.442368 
	C81.932091,110.855354 80.708359,113.894760 79.071533,116.944038 
	C78.030968,116.810883 77.245049,116.860596 76.800438,116.495117 
	C72.185738,112.701729 67.625999,108.841476 63.050987,104.999802 
z"/>
<path fill="#38AFFD" opacity="1.000000" stroke="none" 
	d="
M83.329254,107.068794 
	C77.170074,104.089714 73.455856,97.352074 65.838745,95.905823 
	C66.412987,93.351021 67.409134,90.856041 68.677109,88.137215 
	C70.209557,88.645294 71.417618,89.493988 72.739815,90.089096 
	C78.738380,92.788994 82.437775,97.442635 84.635063,104.080231 
	C84.330421,105.405197 83.829842,106.237000 83.329254,107.068794 
z"/>
<path fill="#238DFC" opacity="1.000000" stroke="none" 
	d="
M83.554085,68.780731 
	C83.614845,68.964371 83.460770,69.206696 83.178543,69.313736 
	C83.050385,69.178459 83.339249,68.839417 83.554085,68.780731 
z"/>
<path fill="#1F88FB" opacity="1.000000" stroke="none" 
	d="
M143.916077,116.232315 
	C144.103882,115.619278 144.291687,115.006241 144.739136,114.197433 
	C143.543533,120.099625 143.465637,126.066635 145.850220,132.055283 
	C146.436951,133.528809 145.737152,135.624084 145.326584,137.362122 
	C144.510635,140.816238 144.784012,143.852432 147.922043,146.491440 
	C145.235184,148.949982 142.475372,151.059616 139.412079,152.824631 
	C139.405548,145.603775 139.694641,138.727188 140.004120,131.851517 
	C140.101288,129.692642 139.975281,127.752136 136.863159,127.747635 
	C136.400330,127.285530 136.081497,127.074104 135.762665,126.862671 
	C137.534531,124.156601 139.306396,121.450531 141.382294,118.378799 
	C142.429581,117.419533 143.172836,116.825928 143.916077,116.232315 
z"/>
<path fill="#1576FC" opacity="1.000000" stroke="none" 
	d="
M135.554657,126.899841 
	C136.081497,127.074104 136.400330,127.285530 136.555817,127.905449 
	C134.925568,130.537399 132.486969,132.647064 132.210236,135.009949 
	C131.747940,138.957062 132.400482,143.112534 133.093933,147.091400 
	C133.603638,150.016068 134.928406,152.798691 135.889954,155.644608 
	C135.602829,156.185898 135.315704,156.727188 134.995575,157.589127 
	C132.569916,158.272964 130.177246,158.636124 127.394562,158.752106 
	C127.002312,158.336868 127.000084,158.168808 127.056229,157.647308 
	C127.647278,156.185257 128.670670,155.058517 128.630447,153.971085 
	C128.419708,148.270630 127.986176,142.576065 127.490891,136.891586 
	C127.432571,136.222214 126.520782,135.627197 125.855392,134.748444 
	C125.385780,134.285034 125.065407,134.070892 125.006561,133.600555 
	C126.544968,132.580231 127.821854,131.816055 129.098740,131.051880 
	C129.606079,130.819611 130.113419,130.587341 131.111511,130.061295 
	C132.583694,128.905121 133.565140,128.042740 134.546585,127.180344 
	C134.837372,127.178505 135.104065,127.097397 135.554657,126.899841 
z"/>
<path fill="#1B7FFD" opacity="1.000000" stroke="none" 
	d="
M136.202225,155.612579 
	C134.928406,152.798691 133.603638,150.016068 133.093933,147.091400 
	C132.400482,143.112534 131.747940,138.957062 132.210236,135.009949 
	C132.486969,132.647064 134.925568,130.537399 136.699799,128.156128 
	C139.975281,127.752136 140.101288,129.692642 140.004120,131.851517 
	C139.694641,138.727188 139.405548,145.603775 139.132538,152.807449 
	C139.156509,153.134888 139.133591,153.095688 138.870239,153.094025 
	C138.366425,153.203949 138.125961,153.315506 137.885483,153.427063 
	C138.114243,153.688370 138.343002,153.949677 138.571762,154.210983 
	C137.886002,154.667511 137.200241,155.124039 136.202225,155.612579 
z"/>
<path fill="#48CAFB" opacity="1.000000" stroke="none" 
	d="
M165.347900,130.013031 
	C165.599243,128.853195 166.104141,127.560631 166.924911,126.216942 
	C167.130127,126.802620 167.019455,127.439415 166.884674,128.398636 
	C166.440857,129.107483 166.021149,129.493896 165.347900,130.013031 
z"/>
<path fill="#1F88FB" opacity="1.000000" stroke="none" 
	d="
M138.741577,154.077133 
	C138.343002,153.949677 138.114243,153.688370 137.885483,153.427063 
	C138.125961,153.315506 138.366425,153.203949 138.881454,153.106262 
	C139.138840,153.413666 139.057312,153.688034 138.741577,154.077133 
z"/>
<path fill="#0A65FC" opacity="1.000000" stroke="none" 
	d="
M126.997864,158.000748 
	C127.000084,158.168808 127.002312,158.336868 127.010292,158.756897 
	C124.268303,159.677917 121.520554,160.346985 118.137947,161.064728 
	C117.503082,161.113419 117.020821,161.113388 117.020821,161.113388 
	C114.496407,160.939270 111.972000,160.765152 109.496117,160.311966 
	C110.552643,159.820419 111.560646,159.607956 113.664391,159.164520 
	C111.663315,158.314331 110.748711,157.925751 110.865288,157.975281 
	C110.557846,150.608887 110.275352,143.840118 110.411209,137.004822 
	C114.520042,136.256134 118.210526,135.573975 121.778381,135.295563 
	C121.668060,141.355011 122.059250,147.043472 121.573822,152.656097 
	C121.179298,157.217743 121.443489,159.987900 126.997864,158.000748 
z"/>
<path fill="#ECF6FF" opacity="1.000000" stroke="none" 
	d="
M116.959816,161.309692 
	C117.020821,161.113388 117.503082,161.113419 117.734970,161.179230 
	C117.824806,161.528275 117.606171,161.727509 117.086105,161.879059 
	C116.861267,161.915405 116.898811,161.505997 116.959816,161.309692 
z"/>
<path fill="#4CCEFC" opacity="1.000000" stroke="none" 
	d="
M81.172363,138.816422 
	C79.593849,138.452560 77.269936,138.622986 76.561905,137.635193 
	C72.896683,132.521713 65.026520,131.581116 63.276455,124.206451 
	C62.671589,121.607162 62.344753,119.214218 62.382500,116.381088 
	C63.521034,116.185577 64.473511,116.221832 65.040817,116.707764 
	C69.763954,120.753334 74.416092,124.881790 79.238235,129.337280 
	C79.981987,132.731705 80.577179,135.774063 81.172363,138.816422 
z"/>
<path fill="#44C5FC" opacity="1.000000" stroke="none" 
	d="
M79.089676,128.985214 
	C74.416092,124.881790 69.763954,120.753334 65.040817,116.707764 
	C64.473511,116.221832 63.521034,116.185577 62.436676,115.965454 
	C62.356895,112.588814 62.587524,109.187607 62.934570,105.393105 
	C67.625999,108.841476 72.185738,112.701729 76.800438,116.495117 
	C77.245049,116.860596 78.030968,116.810883 79.015610,117.122482 
	C79.372787,117.291061 79.203484,117.619347 79.139877,118.066208 
	C79.087807,119.411148 79.099335,120.309219 79.127769,121.637360 
	C79.126343,124.373352 79.108009,126.679283 79.089676,128.985214 
z"/>
<path fill="#0558FB" opacity="1.000000" stroke="none" 
	d="
M79.238235,129.337280 
	C79.108009,126.679283 79.126343,124.373352 79.359962,121.397644 
	C79.451332,119.691689 79.327408,118.655518 79.203484,117.619347 
	C79.203484,117.619347 79.372787,117.291061 79.428711,117.112610 
	C80.708359,113.894760 81.932091,110.855354 83.242538,107.442368 
	C83.829842,106.237000 84.330421,105.405197 84.917679,104.288010 
	C87.049530,101.688568 89.094719,99.374512 91.478485,97.013092 
	C91.817078,96.965714 91.846474,97.408173 91.614960,97.871628 
	C85.470680,112.511574 87.633621,123.104195 98.237343,131.550369 
	C100.176086,133.094635 102.281387,134.429794 103.954254,135.882462 
	C99.834610,135.155838 99.978111,137.921646 100.047905,140.160141 
	C100.234711,146.151031 100.649139,152.134796 100.973137,158.121399 
	C92.015816,155.171661 86.223907,148.832550 82.005646,140.044037 
	C81.681671,139.152527 81.440727,138.951187 81.082695,138.889877 
	C81.082695,138.889877 81.140938,138.872040 81.156647,138.844238 
	C80.577179,135.774063 79.981987,132.731705 79.238235,129.337280 
z"/>
<path fill="#F4F8FD" opacity="1.000000" stroke="none" 
	d="
M104.309807,135.861481 
	C102.281387,134.429794 100.176086,133.094635 98.237343,131.550369 
	C87.633621,123.104195 85.470680,112.511574 91.652679,98.090103 
	C91.947197,98.633301 91.972488,99.421455 91.793694,100.727493 
	C91.604637,101.594086 91.619667,101.942810 91.634697,102.291534 
	C91.757042,101.861633 91.879387,101.431732 92.001732,101.001831 
	C97.800888,100.658142 96.208557,106.619652 98.572083,109.241096 
	C99.051796,109.773163 96.202972,113.484917 94.664345,115.564903 
	C94.096069,116.333099 92.881569,116.623245 91.672844,117.291100 
	C99.162697,120.804634 104.431740,119.388580 107.203026,112.597221 
	C107.493027,115.984489 109.923149,117.847343 106.852730,120.956909 
	C105.574974,122.250954 106.742271,127.095718 108.135773,129.573318 
	C109.547119,132.082657 112.442467,131.845306 115.493355,130.519241 
	C118.878815,129.047760 122.987793,127.459976 126.151299,131.671616 
	C126.330803,131.910583 127.660339,131.285721 128.776688,131.057404 
	C127.821854,131.816055 126.544968,132.580231 124.693359,133.607574 
	C123.390076,134.222870 122.661514,134.574982 121.930748,134.915466 
	C121.928543,134.903854 121.901009,134.891785 121.901009,134.891785 
	C118.210526,135.573975 114.520042,136.256134 110.059189,136.878326 
	C107.629150,136.499405 105.969482,136.180435 104.309807,135.861481 
z"/>
<path fill="#218BFE" opacity="1.000000" stroke="none" 
	d="
M125.814682,92.672760 
	C128.079391,93.386032 131.671844,92.703362 129.930511,97.380173 
	C129.531189,98.452644 131.607422,100.420914 132.496277,102.003906 
	C134.973007,106.414742 137.424484,110.839752 139.626083,115.644493 
	C138.561859,116.232056 137.757462,116.434296 136.953079,116.636536 
	C136.220520,116.642097 135.487961,116.647652 134.372711,116.208893 
	C130.365341,108.810829 126.740646,101.857079 123.321426,94.794350 
	C123.760910,94.457909 123.895363,94.181885 123.930260,93.857292 
	C123.930260,93.857292 123.970787,93.944366 124.253029,93.924286 
	C124.984093,93.509979 125.432907,93.115761 125.881729,92.721527 
	C125.881721,92.721527 125.824089,92.701744 125.814682,92.672760 
z"/>
<path fill="#2D9DFC" opacity="1.000000" stroke="none" 
	d="
M123.115952,94.903336 
	C126.740646,101.857079 130.365341,108.810829 134.021881,116.101471 
	C132.003433,116.518906 129.953140,116.599442 127.461716,116.218185 
	C124.395065,109.846565 121.769531,103.936760 119.144012,98.026947 
	C120.244667,96.824242 121.345322,95.621536 122.762009,94.492966 
	C123.078041,94.567093 123.115952,94.903336 123.115952,94.903336 
z"/>
<path fill="#38AFFC" opacity="1.000000" stroke="none" 
	d="
M119.055389,98.214668 
	C121.769531,103.936760 124.395065,109.846565 127.034180,116.116409 
	C125.327484,116.542503 123.607185,116.608574 121.456963,116.185104 
	C121.536827,110.483170 118.410507,106.790520 115.761848,102.618942 
	C115.899467,101.894035 115.965950,101.478157 116.032433,101.062271 
	C116.460785,100.673004 116.889145,100.283737 117.626610,100.043427 
	C118.175560,100.464554 118.415405,100.736732 118.655243,101.008919 
	C118.744225,100.277664 118.833206,99.546410 118.922188,98.815155 
	C118.922188,98.815155 118.966774,98.402390 119.055389,98.214668 
z"/>
<path fill="#43C3FC" opacity="1.000000" stroke="none" 
	d="
M115.690720,102.927956 
	C118.410507,106.790520 121.536827,110.483170 121.040642,116.074066 
	C118.700432,116.539810 116.346603,116.627060 113.545898,116.303047 
	C112.824150,114.606392 112.549294,113.321007 112.274429,112.035614 
	C112.773003,110.260742 113.271584,108.485878 113.863708,106.117767 
	C113.972229,105.350983 113.987213,105.177429 114.002190,105.003883 
	C114.002190,105.003883 114.000000,105.000000 114.224045,104.839874 
	C114.862305,104.095825 115.276512,103.511887 115.690720,102.927956 
z"/>
<path fill="#F4F8FD" opacity="1.000000" stroke="none" 
	d="
M134.167084,127.120102 
	C133.565140,128.042740 132.583694,128.905121 131.283020,129.833282 
	C130.481949,129.022263 130.000076,128.145477 129.518219,127.268692 
	C130.941330,127.199089 132.364456,127.129478 134.167084,127.120102 
z"/>
<path fill="#F4F8FD" opacity="1.000000" stroke="none" 
	d="
M115.761848,102.618942 
	C115.276512,103.511887 114.862305,104.095825 114.225868,104.840347 
	C113.870316,102.938881 113.736992,100.876831 113.603668,98.814781 
	C113.925690,98.746063 114.247704,98.677345 114.569725,98.608627 
	C114.978622,99.239449 115.387520,99.870270 115.914421,100.781685 
	C115.965950,101.478157 115.899467,101.894035 115.761848,102.618942 
z"/>
<path fill="#71C8F7" opacity="1.000000" stroke="none" 
	d="
M137.288666,116.770111 
	C137.757462,116.434296 138.561859,116.232056 139.687134,115.993240 
	C141.052185,116.017822 142.096344,116.078995 143.528290,116.186249 
	C143.172836,116.825928 142.429581,117.419533 141.347198,118.001511 
	C139.880127,117.627815 138.752197,117.265747 137.288666,116.770111 
z"/>
<path fill="#71C8F7" opacity="1.000000" stroke="none" 
	d="
M112.131592,112.323822 
	C112.549294,113.321007 112.824150,114.606392 113.112930,116.231277 
	C112.747482,115.251198 112.368118,113.931610 112.131592,112.323822 
z"/>
<path fill="#187DFD" opacity="1.000000" stroke="none" 
	d="
M133.420303,76.882690 
	C134.193771,76.658585 135.355621,76.512032 136.739777,76.589943 
	C135.910950,76.863014 134.859818,76.911629 133.420303,76.882690 
z"/>
<path fill="#1F85FB" opacity="1.000000" stroke="none" 
	d="
M105.520279,82.315315 
	C105.999214,81.715309 106.796722,81.086021 107.784439,80.684753 
	C107.262718,81.370529 106.550781,81.828285 105.520279,82.315315 
z"/>
<path fill="#F4F8FD" opacity="1.000000" stroke="none" 
	d="
M101.954575,91.605614 
	C101.712822,91.209419 101.714523,90.815269 101.744759,90.423325 
	C101.745613,90.412292 102.051155,90.424774 102.214622,90.426300 
	C102.210426,90.820190 102.206223,91.214081 101.954575,91.605614 
z"/>
<path fill="#2D9DFC" opacity="1.000000" stroke="none" 
	d="
M118.707001,98.901428 
	C118.833206,99.546410 118.744225,100.277664 118.655243,101.008919 
	C118.415405,100.736732 118.175560,100.464554 117.874420,99.888809 
	C117.950890,99.285591 118.177116,99.086411 118.707001,98.901428 
z"/>
<path fill="#F4F8FD" opacity="1.000000" stroke="none" 
	d="
M113.761177,105.014160 
	C113.987213,105.177429 113.972229,105.350983 113.852707,105.764114 
	C113.394188,105.790154 113.040207,105.576591 112.686234,105.363029 
	C112.964211,105.250168 113.242188,105.137306 113.761177,105.014160 
z"/>
<path fill="#F4F8FD" opacity="1.000000" stroke="none" 
	d="
M130.993164,121.994766 
	C131.343994,121.746849 131.693497,121.496849 132.055801,121.267021 
	C132.062637,121.262680 132.221100,121.497375 132.308823,121.620552 
	C132.034439,121.739792 131.760071,121.859039 131.242844,121.989143 
	C131.000000,122.000000 130.993164,121.994759 130.993164,121.994766 
z"/>
<path fill="#1679FE" opacity="1.000000" stroke="none" 
	d="
M125.579071,92.767075 
	C125.432907,93.115761 124.984093,93.509979 124.207825,93.908066 
	C124.345726,93.545502 124.811066,93.179054 125.579071,92.767075 
z"/>
<path fill="#1679FE" opacity="1.000000" stroke="none" 
	d="
M123.321426,94.794350 
	C123.115952,94.903336 123.078041,94.567093 123.060791,94.398773 
	C123.043549,94.230446 123.441040,93.934944 123.685654,93.896118 
	C123.895363,94.181885 123.760910,94.457909 123.321426,94.794350 
z"/>
<path fill="#1F85FB" opacity="1.000000" stroke="none" 
	d="
M104.364845,83.224594 
	C104.286125,83.000778 104.480103,82.660439 104.965881,82.233932 
	C105.050964,82.467857 104.844261,82.787964 104.364845,83.224594 
z"/>
<path fill="#F4F8FD" opacity="1.000000" stroke="none" 
	d="
M131.002716,122.003448 
	C130.909058,122.040222 130.812683,122.073540 130.854736,122.050804 
	C130.993164,121.994759 131.000000,122.000000 131.002716,122.003448 
z"/>
<path fill="#0161F3" opacity="1.000000" stroke="none" 
	d="
M145.085953,53.377476 
	C147.620712,53.402302 150.237946,53.812687 152.947021,54.607193 
	C150.415390,54.581886 147.791901,54.172459 145.085953,53.377476 
z"/>
<path fill="#0B66FD" opacity="1.000000" stroke="none" 
	d="
M137.000000,55.000076 
	C136.697708,55.510082 136.395416,56.020008 136.093109,56.529930 
	C135.883469,56.348289 135.673828,56.166649 135.464188,55.985008 
	C135.786621,55.680073 136.109055,55.375145 136.715759,55.035030 
	C137.000000,54.999847 137.000000,55.000000 137.000000,55.000076 
z"/>
<path fill="#187DFD" opacity="1.000000" stroke="none" 
	d="
M112.999786,55.999676 
	C113.348206,55.750671 113.696831,55.501991 114.045456,55.253311 
	C114.132225,55.376900 114.218987,55.500492 114.305756,55.624084 
	C114.030701,55.741131 113.755646,55.858170 113.240601,55.987953 
	C113.000610,56.000698 113.000000,56.000000 112.999786,55.999676 
z"/>
<path fill="#0161F3" opacity="1.000000" stroke="none" 
	d="
M168.747375,54.686050 
	C165.328247,54.984348 161.615524,54.990417 157.439240,54.993546 
	C160.801712,54.791679 164.627747,54.592751 168.747375,54.686050 
z"/>
<path fill="#0161F3" opacity="1.000000" stroke="none" 
	d="
M176.438507,54.538219 
	C176.399216,54.475239 176.477798,54.601200 176.438507,54.538219 
z"/>
<path fill="#065CFD" opacity="1.000000" stroke="none" 
	d="
M103.954254,135.882446 
	C105.969482,136.180435 107.629150,136.499405 109.640839,136.944855 
	C110.275352,143.840118 110.557846,150.608887 110.865288,157.975281 
	C110.748711,157.925751 111.663315,158.314331 113.664391,159.164520 
	C111.560646,159.607956 110.552643,159.820419 109.161224,160.073425 
	C106.343231,159.624786 103.908676,159.135590 101.223625,158.383896 
	C100.649139,152.134796 100.234711,146.151031 100.047905,140.160141 
	C99.978111,137.921646 99.834610,135.155838 103.954254,135.882446 
M106.970062,155.178497 
	C106.564308,155.273453 106.158546,155.368423 105.752792,155.463379 
	C105.841812,155.583847 105.946213,155.816116 106.017326,155.806335 
	C106.429214,155.749695 106.833252,155.636017 106.970062,155.178497 
z"/>
<path fill="#4CCEFC" opacity="1.000000" stroke="none" 
	d="
M81.138107,139.119080 
	C81.440727,138.951187 81.681671,139.152527 81.836700,139.736389 
	C81.564537,139.852692 81.339752,139.642502 81.138107,139.119080 
z"/>
<path fill="#1F85FB" opacity="1.000000" stroke="none" 
	d="
M91.550964,64.467026 
	C91.584328,64.522751 91.517593,64.411308 91.550964,64.467026 
z"/>
<path fill="#0F6DFD" opacity="1.000000" stroke="none" 
	d="
M127.056229,157.647308 
	C121.443489,159.987900 121.179298,157.217743 121.573822,152.656097 
	C122.059250,147.043472 121.668060,141.355011 121.778381,135.295563 
	C121.901009,134.891785 121.928543,134.903854 122.337341,134.933868 
	C123.832298,134.975143 124.918465,134.986435 126.004631,134.997726 
	C126.520782,135.627197 127.432571,136.222214 127.490891,136.891586 
	C127.986176,142.576065 128.419708,148.270630 128.630447,153.971085 
	C128.670670,155.058517 127.647278,156.185257 127.056229,157.647308 
z"/>
<path fill="#0A65FC" opacity="1.000000" stroke="none" 
	d="
M125.855392,134.748444 
	C124.918465,134.986435 123.832298,134.975143 122.339539,134.945480 
	C122.661514,134.574982 123.390076,134.222870 124.431839,133.863754 
	C125.065407,134.070892 125.385780,134.285034 125.855392,134.748444 
z"/>
<path fill="#3EB8FD" opacity="1.000000" stroke="none" 
	d="
M79.139877,118.066208 
	C79.327408,118.655518 79.451332,119.691689 79.343063,120.967575 
	C79.099335,120.309219 79.087807,119.411148 79.139877,118.066208 
z"/>
<path fill="#F8FBFD" opacity="1.000000" stroke="none" 
	d="
M92.000870,101.000916 
	C91.879387,101.431732 91.757042,101.861633 91.634697,102.291534 
	C91.619667,101.942810 91.604637,101.594086 91.794022,101.122139 
	C91.998436,100.998917 92.000000,101.000000 92.000870,101.000916 
z"/>
<path fill="#0A65FC" opacity="1.000000" stroke="none" 
	d="
M107.105011,155.360077 
	C106.833252,155.636017 106.429214,155.749695 106.017326,155.806335 
	C105.946213,155.816116 105.841812,155.583847 105.752792,155.463379 
	C106.158546,155.368423 106.564308,155.273453 107.105011,155.360077 
z"/>
</svg>